<mxfile host="app.diagrams.net" modified="2020-09-18T19:22:07.498Z" agent="5.0 (Windows NT 6.3; Win64; x64) AppleWebKit/537.36 (KHTML, like Gecko) Chrome/85.0.4183.102 Safari/537.36" etag="Llp33ZfXx1WEi7B6wx1h" version="13.7.3" type="github">
  <diagram id="C5RBs43oDa-KdzZeNtuy" name="Page-1">
    <mxGraphModel dx="723" dy="334" grid="1" gridSize="10" guides="1" tooltips="1" connect="1" arrows="1" fold="1" page="1" pageScale="1" pageWidth="827" pageHeight="1169" math="0" shadow="0">
      <root>
        <mxCell id="WIyWlLk6GJQsqaUBKTNV-0" />
        <mxCell id="WIyWlLk6GJQsqaUBKTNV-1" parent="WIyWlLk6GJQsqaUBKTNV-0" />
        <mxCell id="eEL5IORIcgzkGFP6kJnh-72" value="" style="rounded=1;whiteSpace=wrap;html=1;sketch=0;strokeColor=#d79b00;fillColor=#ffe6cc;" vertex="1" parent="WIyWlLk6GJQsqaUBKTNV-1">
          <mxGeometry x="320" y="10" width="220" height="120" as="geometry" />
        </mxCell>
        <mxCell id="eEL5IORIcgzkGFP6kJnh-67" value="" style="rounded=1;whiteSpace=wrap;html=1;sketch=0;strokeColor=#d6b656;fillColor=#fff2cc;" vertex="1" parent="WIyWlLk6GJQsqaUBKTNV-1">
          <mxGeometry x="240" y="200" width="310" height="140" as="geometry" />
        </mxCell>
        <mxCell id="eEL5IORIcgzkGFP6kJnh-62" value="" style="rounded=1;whiteSpace=wrap;html=1;sketch=0;fillColor=#f9f7ed;strokeColor=#36393d;" vertex="1" parent="WIyWlLk6GJQsqaUBKTNV-1">
          <mxGeometry x="20" y="20" width="210" height="490" as="geometry" />
        </mxCell>
        <mxCell id="eEL5IORIcgzkGFP6kJnh-40" style="edgeStyle=orthogonalEdgeStyle;curved=0;rounded=1;sketch=0;orthogonalLoop=1;jettySize=auto;html=1;entryX=0;entryY=0.5;entryDx=0;entryDy=0;" edge="1" parent="WIyWlLk6GJQsqaUBKTNV-1" source="eEL5IORIcgzkGFP6kJnh-19" target="eEL5IORIcgzkGFP6kJnh-22">
          <mxGeometry relative="1" as="geometry" />
        </mxCell>
        <mxCell id="eEL5IORIcgzkGFP6kJnh-51" value="Display&amp;nbsp;&lt;br&gt;e Editor" style="edgeLabel;html=1;align=center;verticalAlign=middle;resizable=0;points=[];" vertex="1" connectable="0" parent="eEL5IORIcgzkGFP6kJnh-40">
          <mxGeometry x="-0.2047" relative="1" as="geometry">
            <mxPoint x="5" as="offset" />
          </mxGeometry>
        </mxCell>
        <mxCell id="eEL5IORIcgzkGFP6kJnh-19" value="Fazer Missão" style="shape=ext;double=1;rounded=0;whiteSpace=wrap;html=1;align=left;" vertex="1" parent="WIyWlLk6GJQsqaUBKTNV-1">
          <mxGeometry x="140" y="210" width="80" height="30" as="geometry" />
        </mxCell>
        <mxCell id="eEL5IORIcgzkGFP6kJnh-41" style="edgeStyle=orthogonalEdgeStyle;curved=0;rounded=1;sketch=0;orthogonalLoop=1;jettySize=auto;html=1;entryX=0;entryY=0.5;entryDx=0;entryDy=0;" edge="1" parent="WIyWlLk6GJQsqaUBKTNV-1" source="eEL5IORIcgzkGFP6kJnh-20" target="eEL5IORIcgzkGFP6kJnh-21">
          <mxGeometry relative="1" as="geometry" />
        </mxCell>
        <mxCell id="eEL5IORIcgzkGFP6kJnh-43" style="edgeStyle=orthogonalEdgeStyle;curved=0;rounded=1;sketch=0;orthogonalLoop=1;jettySize=auto;html=1;entryX=0.5;entryY=0;entryDx=0;entryDy=0;" edge="1" parent="WIyWlLk6GJQsqaUBKTNV-1" source="eEL5IORIcgzkGFP6kJnh-20" target="eEL5IORIcgzkGFP6kJnh-23">
          <mxGeometry relative="1" as="geometry" />
        </mxCell>
        <mxCell id="eEL5IORIcgzkGFP6kJnh-52" value="Display" style="edgeLabel;html=1;align=center;verticalAlign=middle;resizable=0;points=[];" vertex="1" connectable="0" parent="eEL5IORIcgzkGFP6kJnh-43">
          <mxGeometry x="-0.4595" y="1" relative="1" as="geometry">
            <mxPoint x="12.5" y="1" as="offset" />
          </mxGeometry>
        </mxCell>
        <mxCell id="eEL5IORIcgzkGFP6kJnh-20" value="Carregar Missão" style="shape=ext;double=1;rounded=0;whiteSpace=wrap;html=1;align=left;" vertex="1" parent="WIyWlLk6GJQsqaUBKTNV-1">
          <mxGeometry x="140" y="260" width="80" height="40" as="geometry" />
        </mxCell>
        <mxCell id="eEL5IORIcgzkGFP6kJnh-42" value="Editor e Display" style="edgeStyle=orthogonalEdgeStyle;curved=0;rounded=1;sketch=0;orthogonalLoop=1;jettySize=auto;html=1;entryX=0.5;entryY=1;entryDx=0;entryDy=0;" edge="1" parent="WIyWlLk6GJQsqaUBKTNV-1" source="eEL5IORIcgzkGFP6kJnh-21" target="eEL5IORIcgzkGFP6kJnh-22">
          <mxGeometry relative="1" as="geometry" />
        </mxCell>
        <mxCell id="eEL5IORIcgzkGFP6kJnh-21" value="Editar Missão" style="shape=ext;double=1;rounded=0;whiteSpace=wrap;html=1;align=left;" vertex="1" parent="WIyWlLk6GJQsqaUBKTNV-1">
          <mxGeometry x="334" y="265" width="80" height="30" as="geometry" />
        </mxCell>
        <mxCell id="eEL5IORIcgzkGFP6kJnh-44" style="edgeStyle=orthogonalEdgeStyle;curved=0;rounded=1;sketch=0;orthogonalLoop=1;jettySize=auto;html=1;entryX=0.5;entryY=0;entryDx=0;entryDy=0;" edge="1" parent="WIyWlLk6GJQsqaUBKTNV-1" source="eEL5IORIcgzkGFP6kJnh-22" target="eEL5IORIcgzkGFP6kJnh-23">
          <mxGeometry relative="1" as="geometry">
            <mxPoint x="440" y="340" as="targetPoint" />
            <Array as="points">
              <mxPoint x="460" y="225" />
              <mxPoint x="460" y="330" />
              <mxPoint x="280" y="330" />
            </Array>
          </mxGeometry>
        </mxCell>
        <mxCell id="eEL5IORIcgzkGFP6kJnh-22" value="Salvar Missão" style="shape=ext;double=1;rounded=0;whiteSpace=wrap;html=1;align=left;" vertex="1" parent="WIyWlLk6GJQsqaUBKTNV-1">
          <mxGeometry x="334" y="210" width="80" height="30" as="geometry" />
        </mxCell>
        <mxCell id="eEL5IORIcgzkGFP6kJnh-23" value="Enviar Missão para VANT" style="shape=ext;double=1;rounded=0;whiteSpace=wrap;html=1;align=left;" vertex="1" parent="WIyWlLk6GJQsqaUBKTNV-1">
          <mxGeometry x="240" y="350" width="80" height="50" as="geometry" />
        </mxCell>
        <mxCell id="eEL5IORIcgzkGFP6kJnh-35" style="edgeStyle=orthogonalEdgeStyle;curved=0;rounded=1;sketch=0;orthogonalLoop=1;jettySize=auto;html=1;" edge="1" parent="WIyWlLk6GJQsqaUBKTNV-1">
          <mxGeometry relative="1" as="geometry">
            <mxPoint x="340" y="165" as="targetPoint" />
            <mxPoint x="220" y="165" as="sourcePoint" />
          </mxGeometry>
        </mxCell>
        <mxCell id="eEL5IORIcgzkGFP6kJnh-36" value="Não Havendo&lt;br&gt;Conexão" style="edgeLabel;html=1;align=center;verticalAlign=middle;resizable=0;points=[];" vertex="1" connectable="0" parent="eEL5IORIcgzkGFP6kJnh-35">
          <mxGeometry x="-0.3417" y="-1" relative="1" as="geometry">
            <mxPoint x="10.83" y="-1" as="offset" />
          </mxGeometry>
        </mxCell>
        <mxCell id="eEL5IORIcgzkGFP6kJnh-65" style="edgeStyle=orthogonalEdgeStyle;curved=0;rounded=1;sketch=0;orthogonalLoop=1;jettySize=auto;html=1;exitX=1;exitY=0.75;exitDx=0;exitDy=0;fillColor=#FFE45E;fontColor=#5AA9E6;entryX=0;entryY=0.5;entryDx=0;entryDy=0;" edge="1" parent="WIyWlLk6GJQsqaUBKTNV-1" source="eEL5IORIcgzkGFP6kJnh-27" target="eEL5IORIcgzkGFP6kJnh-66">
          <mxGeometry relative="1" as="geometry">
            <mxPoint x="430" y="190" as="targetPoint" />
            <Array as="points">
              <mxPoint x="335" y="180" />
              <mxPoint x="335" y="190" />
              <mxPoint x="430" y="190" />
              <mxPoint x="430" y="170" />
            </Array>
          </mxGeometry>
        </mxCell>
        <mxCell id="eEL5IORIcgzkGFP6kJnh-27" value="Mostrar Telemetria" style="shape=ext;double=1;rounded=0;whiteSpace=wrap;html=1;align=left;" vertex="1" parent="WIyWlLk6GJQsqaUBKTNV-1">
          <mxGeometry x="140" y="150" width="80" height="40" as="geometry" />
        </mxCell>
        <mxCell id="eEL5IORIcgzkGFP6kJnh-31" value="" style="edgeStyle=orthogonalEdgeStyle;curved=0;rounded=1;sketch=0;orthogonalLoop=1;jettySize=auto;html=1;" edge="1" parent="WIyWlLk6GJQsqaUBKTNV-1" source="eEL5IORIcgzkGFP6kJnh-28" target="eEL5IORIcgzkGFP6kJnh-29">
          <mxGeometry relative="1" as="geometry">
            <Array as="points">
              <mxPoint x="310" y="100" />
              <mxPoint x="310" y="100" />
            </Array>
          </mxGeometry>
        </mxCell>
        <mxCell id="eEL5IORIcgzkGFP6kJnh-32" style="edgeStyle=orthogonalEdgeStyle;curved=0;rounded=1;sketch=0;orthogonalLoop=1;jettySize=auto;html=1;exitX=1;exitY=0.25;exitDx=0;exitDy=0;entryX=0;entryY=0.5;entryDx=0;entryDy=0;" edge="1" parent="WIyWlLk6GJQsqaUBKTNV-1" source="eEL5IORIcgzkGFP6kJnh-28" target="eEL5IORIcgzkGFP6kJnh-33">
          <mxGeometry relative="1" as="geometry">
            <mxPoint x="330" y="40" as="targetPoint" />
            <Array as="points">
              <mxPoint x="250" y="90" />
              <mxPoint x="250" y="40" />
            </Array>
          </mxGeometry>
        </mxCell>
        <mxCell id="eEL5IORIcgzkGFP6kJnh-28" value="Conectar a um VANT" style="shape=ext;double=1;rounded=0;whiteSpace=wrap;html=1;align=left;" vertex="1" parent="WIyWlLk6GJQsqaUBKTNV-1">
          <mxGeometry x="140" y="80" width="80" height="40" as="geometry" />
        </mxCell>
        <mxCell id="eEL5IORIcgzkGFP6kJnh-29" value="Nova Conexão" style="shape=ext;double=1;rounded=0;whiteSpace=wrap;html=1;align=left;" vertex="1" parent="WIyWlLk6GJQsqaUBKTNV-1">
          <mxGeometry x="334" y="80" width="80" height="40" as="geometry" />
        </mxCell>
        <mxCell id="eEL5IORIcgzkGFP6kJnh-33" value="Conexão Atual" style="shape=ext;double=1;rounded=0;whiteSpace=wrap;html=1;align=left;" vertex="1" parent="WIyWlLk6GJQsqaUBKTNV-1">
          <mxGeometry x="334" y="20" width="80" height="40" as="geometry" />
        </mxCell>
        <mxCell id="eEL5IORIcgzkGFP6kJnh-39" value="&lt;b&gt;Exceção&lt;/b&gt;" style="shape=process;whiteSpace=wrap;html=1;backgroundOutline=1;rounded=0;sketch=0;fillColor=#a0522d;strokeColor=#6D1F00;strokeWidth=2;glass=0;fontColor=#ffffff;" vertex="1" parent="WIyWlLk6GJQsqaUBKTNV-1">
          <mxGeometry x="340" y="150" width="80" height="30" as="geometry" />
        </mxCell>
        <mxCell id="eEL5IORIcgzkGFP6kJnh-45" style="edgeStyle=orthogonalEdgeStyle;curved=0;rounded=1;sketch=0;orthogonalLoop=1;jettySize=auto;html=1;" edge="1" parent="WIyWlLk6GJQsqaUBKTNV-1">
          <mxGeometry relative="1" as="geometry">
            <mxPoint x="440" y="375" as="targetPoint" />
            <mxPoint x="320" y="375" as="sourcePoint" />
          </mxGeometry>
        </mxCell>
        <mxCell id="eEL5IORIcgzkGFP6kJnh-46" value="Não Havendo&lt;br&gt;Conexão" style="edgeLabel;html=1;align=center;verticalAlign=middle;resizable=0;points=[];" vertex="1" connectable="0" parent="eEL5IORIcgzkGFP6kJnh-45">
          <mxGeometry x="-0.3417" y="-1" relative="1" as="geometry">
            <mxPoint x="10.83" y="-1" as="offset" />
          </mxGeometry>
        </mxCell>
        <mxCell id="eEL5IORIcgzkGFP6kJnh-47" value="&lt;b&gt;Exceção&lt;/b&gt;" style="shape=process;whiteSpace=wrap;html=1;backgroundOutline=1;rounded=0;sketch=0;fillColor=#a0522d;strokeColor=#6D1F00;strokeWidth=2;glass=0;fontColor=#ffffff;" vertex="1" parent="WIyWlLk6GJQsqaUBKTNV-1">
          <mxGeometry x="440" y="360" width="80" height="30" as="geometry" />
        </mxCell>
        <mxCell id="eEL5IORIcgzkGFP6kJnh-59" style="edgeStyle=orthogonalEdgeStyle;curved=0;rounded=1;sketch=0;orthogonalLoop=1;jettySize=auto;html=1;exitX=1;exitY=0.75;exitDx=0;exitDy=0;" edge="1" parent="WIyWlLk6GJQsqaUBKTNV-1" source="eEL5IORIcgzkGFP6kJnh-55">
          <mxGeometry relative="1" as="geometry">
            <mxPoint x="280" y="500" as="targetPoint" />
          </mxGeometry>
        </mxCell>
        <mxCell id="eEL5IORIcgzkGFP6kJnh-55" value="Mostrar Missão Atual do VANT" style="shape=ext;double=1;rounded=0;whiteSpace=wrap;html=1;align=left;" vertex="1" parent="WIyWlLk6GJQsqaUBKTNV-1">
          <mxGeometry x="140" y="420" width="80" height="50" as="geometry" />
        </mxCell>
        <mxCell id="eEL5IORIcgzkGFP6kJnh-56" style="edgeStyle=orthogonalEdgeStyle;curved=0;rounded=1;sketch=0;orthogonalLoop=1;jettySize=auto;html=1;" edge="1" parent="WIyWlLk6GJQsqaUBKTNV-1">
          <mxGeometry relative="1" as="geometry">
            <mxPoint x="340" y="435" as="targetPoint" />
            <mxPoint x="220" y="435" as="sourcePoint" />
          </mxGeometry>
        </mxCell>
        <mxCell id="eEL5IORIcgzkGFP6kJnh-57" value="Não Havendo&lt;br&gt;Conexão" style="edgeLabel;html=1;align=center;verticalAlign=middle;resizable=0;points=[];" vertex="1" connectable="0" parent="eEL5IORIcgzkGFP6kJnh-56">
          <mxGeometry x="-0.3417" y="-1" relative="1" as="geometry">
            <mxPoint x="10.83" y="-1" as="offset" />
          </mxGeometry>
        </mxCell>
        <mxCell id="eEL5IORIcgzkGFP6kJnh-58" value="&lt;b&gt;Exceção&lt;/b&gt;" style="shape=process;whiteSpace=wrap;html=1;backgroundOutline=1;rounded=0;sketch=0;fillColor=#a0522d;strokeColor=#6D1F00;strokeWidth=2;glass=0;fontColor=#ffffff;" vertex="1" parent="WIyWlLk6GJQsqaUBKTNV-1">
          <mxGeometry x="340" y="420" width="80" height="30" as="geometry" />
        </mxCell>
        <mxCell id="eEL5IORIcgzkGFP6kJnh-60" value="Deletar" style="shape=ext;double=1;rounded=0;whiteSpace=wrap;html=1;align=left;" vertex="1" parent="WIyWlLk6GJQsqaUBKTNV-1">
          <mxGeometry x="240" y="500" width="80" height="30" as="geometry" />
        </mxCell>
        <mxCell id="eEL5IORIcgzkGFP6kJnh-63" value="&lt;font style=&quot;font-size: 15px&quot;&gt;&lt;b&gt;MENU PRINCIPAL&lt;/b&gt;&lt;/font&gt;" style="text;html=1;strokeColor=none;fillColor=none;align=center;verticalAlign=middle;whiteSpace=wrap;rounded=0;sketch=0;fontColor=#5AA9E6;" vertex="1" parent="WIyWlLk6GJQsqaUBKTNV-1">
          <mxGeometry x="40" y="30" width="130" height="40" as="geometry" />
        </mxCell>
        <mxCell id="eEL5IORIcgzkGFP6kJnh-66" value="Display de Telemetria" style="shape=ext;double=1;rounded=0;whiteSpace=wrap;html=1;align=left;" vertex="1" parent="WIyWlLk6GJQsqaUBKTNV-1">
          <mxGeometry x="450" y="150" width="80" height="40" as="geometry" />
        </mxCell>
        <mxCell id="eEL5IORIcgzkGFP6kJnh-71" value="&lt;font style=&quot;font-size: 15px&quot;&gt;&lt;b&gt;EDITOR / DISPLAY&lt;/b&gt;&lt;/font&gt;" style="text;html=1;strokeColor=none;fillColor=none;align=center;verticalAlign=middle;whiteSpace=wrap;rounded=0;sketch=0;fontColor=#5AA9E6;" vertex="1" parent="WIyWlLk6GJQsqaUBKTNV-1">
          <mxGeometry x="440" y="205" width="130" height="40" as="geometry" />
        </mxCell>
        <mxCell id="eEL5IORIcgzkGFP6kJnh-74" value="&lt;span style=&quot;font-size: 15px&quot;&gt;&lt;b&gt;Config Conexão&lt;/b&gt;&lt;/span&gt;" style="text;html=1;strokeColor=none;fillColor=none;align=center;verticalAlign=middle;whiteSpace=wrap;rounded=0;sketch=0;fontColor=#5AA9E6;" vertex="1" parent="WIyWlLk6GJQsqaUBKTNV-1">
          <mxGeometry x="415" y="10" width="130" height="40" as="geometry" />
        </mxCell>
        <mxCell id="eEL5IORIcgzkGFP6kJnh-75" value="Configurar Airframe" style="shape=ext;double=1;rounded=0;whiteSpace=wrap;html=1;align=left;" vertex="1" parent="WIyWlLk6GJQsqaUBKTNV-1">
          <mxGeometry x="40" y="420" width="80" height="50" as="geometry" />
        </mxCell>
      </root>
    </mxGraphModel>
  </diagram>
</mxfile>
